# xmcd
#
# Track frame offsets:
#	150
#	10912
#	22402
#	36160
#	52307
#	64547
#	81385
#	93167
#	108352
#	123560
#	137460
#	147145
#	160095
#
# Disc length: 2291 seconds
#
# Revision: 0
# Processed by: cddbd v1.5.1PL0 Copyright (c) Steve Scherf et al.
# Submitted via: dBpowerAMP V4.0
#
DISCID=b008f10d
DTITLE=Hard Drive - Bluegrass - Ain't No Part of Nothin'
DYEAR=2004
DGENRE=Bluegrass
TTITLE0=Sittin' On Top of the World
TTITLE1=Leaving Detroit
TTITLE2=Big Spike Hammer
TTITLE3=Get Down on Your Knees and Pray
TTITLE4=Fox on the Run
TTITLE5=Home Sweet Home Revisited
TTITLE6=The Redwood Hills
TTITLE7=Man of Constant Sorrow
TTITLE8=The Gospel Plow
TTITLE9=A Far Cry
TTITLE10=Longing for the Old Days
TTITLE11=Crying Holy
TTITLE12=Ain't No Part of Nothin'
EXTD=
EXTT0=
EXTT1=
EXTT2=
EXTT3=
EXTT4=
EXTT5=
EXTT6=
EXTT7=
EXTT8=
EXTT9=
EXTT10=
EXTT11=
EXTT12=
PLAYORDER=
